<mxfile host="app.diagrams.net" modified="2024-04-30T11:18:25.550Z" agent="Mozilla/5.0 (Windows NT 10.0; Win64; x64) AppleWebKit/537.36 (KHTML, like Gecko) Chrome/124.0.0.0 Safari/537.36" etag="p-TOov2Kkvyy2TTUxMXX" version="24.3.1" type="github" pages="2">
  <diagram name="Page-1" id="iOX11dRyX9W3uOl7KZrZ">
    <mxGraphModel dx="554" dy="477" grid="0" gridSize="10" guides="1" tooltips="1" connect="1" arrows="1" fold="1" page="0" pageScale="1" pageWidth="850" pageHeight="1100" math="0" shadow="0">
      <root>
        <mxCell id="0" />
        <mxCell id="1" parent="0" />
      </root>
    </mxGraphModel>
  </diagram>
  <diagram id="fzxgOjUEPgoHdPPkar7X" name="Page-2">
    <mxGraphModel dx="554" dy="477" grid="0" gridSize="10" guides="1" tooltips="1" connect="1" arrows="1" fold="1" page="0" pageScale="1" pageWidth="850" pageHeight="1100" math="0" shadow="0">
      <root>
        <mxCell id="0" />
        <mxCell id="1" parent="0" />
        <mxCell id="w9Bpbrl2iE2G2yENGAXV-1" value="U" style="whiteSpace=wrap;strokeWidth=2;" parent="1" vertex="1">
          <mxGeometry x="57" y="20" width="25" height="34" as="geometry" />
        </mxCell>
        <mxCell id="w9Bpbrl2iE2G2yENGAXV-2" value="B" style="whiteSpace=wrap;strokeWidth=2;" parent="1" vertex="1">
          <mxGeometry x="20" y="104" width="24" height="34" as="geometry" />
        </mxCell>
        <mxCell id="w9Bpbrl2iE2G2yENGAXV-3" value="c" style="whiteSpace=wrap;strokeWidth=2;" parent="1" vertex="1">
          <mxGeometry x="94" y="104" width="25" height="34" as="geometry" />
        </mxCell>
        <mxCell id="w9Bpbrl2iE2G2yENGAXV-4" value="k" style="whiteSpace=wrap;strokeWidth=2;" parent="1" vertex="1">
          <mxGeometry x="57" y="187" width="25" height="34" as="geometry" />
        </mxCell>
        <mxCell id="w9Bpbrl2iE2G2yENGAXV-5" value="" style="curved=1;startArrow=none;endArrow=block;exitX=-0.01989583969116211;exitY=0.9152025294955585;entryX=0.5013020833333334;entryY=-0.00980388416963465;rounded=0;fontSize=12;startSize=8;endSize=8;" parent="1" source="w9Bpbrl2iE2G2yENGAXV-1" target="w9Bpbrl2iE2G2yENGAXV-2" edge="1">
          <mxGeometry relative="1" as="geometry">
            <Array as="points">
              <mxPoint x="32" y="79" />
            </Array>
          </mxGeometry>
        </mxCell>
        <mxCell id="w9Bpbrl2iE2G2yENGAXV-6" value="" style="curved=1;startArrow=none;endArrow=block;exitX=0.9951041603088379;exitY=0.9152025294955585;entryX=0.4939583206176758;entryY=-0.00980388416963465;rounded=0;fontSize=12;startSize=8;endSize=8;" parent="1" source="w9Bpbrl2iE2G2yENGAXV-1" target="w9Bpbrl2iE2G2yENGAXV-3" edge="1">
          <mxGeometry relative="1" as="geometry">
            <Array as="points">
              <mxPoint x="106" y="79" />
            </Array>
          </mxGeometry>
        </mxCell>
        <mxCell id="w9Bpbrl2iE2G2yENGAXV-7" value="" style="curved=1;startArrow=none;endArrow=block;exitX=0.5013020833333334;exitY=0.9803922316607308;entryX=-0.012395839691162109;entryY=0.09100602316812502;rounded=0;fontSize=12;startSize=8;endSize=8;" parent="1" source="w9Bpbrl2iE2G2yENGAXV-2" target="w9Bpbrl2iE2G2yENGAXV-4" edge="1">
          <mxGeometry relative="1" as="geometry">
            <Array as="points">
              <mxPoint x="32" y="162" />
            </Array>
          </mxGeometry>
        </mxCell>
        <mxCell id="w9Bpbrl2iE2G2yENGAXV-8" value="" style="curved=1;startArrow=none;endArrow=block;exitX=0.4939583206176758;exitY=0.9803922316607308;entryX=0.9876041603088379;entryY=0.09100602316812502;rounded=0;fontSize=12;startSize=8;endSize=8;" parent="1" source="w9Bpbrl2iE2G2yENGAXV-3" target="w9Bpbrl2iE2G2yENGAXV-4" edge="1">
          <mxGeometry relative="1" as="geometry">
            <Array as="points">
              <mxPoint x="106" y="162" />
            </Array>
          </mxGeometry>
        </mxCell>
      </root>
    </mxGraphModel>
  </diagram>
</mxfile>
